<?xml version="1.0" encoding="utf-8"?>
<!-- Generator: Adobe Illustrator 21.1.0, SVG Export Plug-In . SVG Version: 6.00 Build 0)  -->
<svg version="1.1" id="Layer_1" xmlns="http://www.w3.org/2000/svg" xmlns:xlink="http://www.w3.org/1999/xlink" x="0px" y="0px"
	 viewBox="0 0 100 125" style="enable-background:new 0 0 100 125;" xml:space="preserve">
<title>80 all</title>
<g>
	<g>
		<path d="M81,81H19V19h62V81z M25,75h50V25H25V75z"/>
	</g>
	<g>
		<rect x="41" y="4" width="6" height="10"/>
	</g>
	<g>
		<rect x="53" y="4" width="6" height="10"/>
	</g>
	<g>
		<rect x="29" y="4" width="6" height="10"/>
	</g>
	<g>
		<rect x="65" y="4" width="6" height="10"/>
	</g>
	<g>
		<rect x="41" y="86" width="6" height="10"/>
	</g>
	<g>
		<rect x="53" y="86" width="6" height="10"/>
	</g>
	<g>
		<rect x="29" y="86" width="6" height="10"/>
	</g>
	<g>
		<rect x="65" y="86" width="6" height="10"/>
	</g>
	<g>
		<rect x="86" y="41" width="10" height="6"/>
	</g>
	<g>
		<rect x="86" y="53" width="10" height="6"/>
	</g>
	<g>
		<rect x="86" y="29" width="10" height="6"/>
	</g>
	<g>
		<rect x="86" y="65" width="10" height="6"/>
	</g>
	<g>
		<rect x="4" y="41" width="10" height="6"/>
	</g>
	<g>
		<rect x="4" y="53" width="10" height="6"/>
	</g>
	<g>
		<rect x="4" y="29" width="10" height="6"/>
	</g>
	<g>
		<rect x="4" y="65" width="10" height="6"/>
	</g>
	<g>
		<path d="M63,63H37V37h26V63z"/>
	</g>
</g>
</svg>
